<svg width="500" height="500" viewBox="0 0 500 500" fill="none" xmlns="http://www.w3.org/2000/svg">
<path d="M239.044 395.132V419H233.23V395.132H239.044ZM254.545 419.238C252.301 419.238 250.239 418.717 248.357 417.674C246.499 416.631 245.014 415.181 243.903 413.322C242.815 411.441 242.271 409.333 242.271 406.998C242.271 404.663 242.815 402.567 243.903 400.708C245.014 398.849 246.499 397.399 248.357 396.356C250.239 395.313 252.301 394.792 254.545 394.792C256.789 394.792 258.841 395.313 260.699 396.356C262.581 397.399 264.054 398.849 265.119 400.708C266.207 402.567 266.751 404.663 266.751 406.998C266.751 409.333 266.207 411.441 265.119 413.322C264.031 415.181 262.558 416.631 260.699 417.674C258.841 418.717 256.789 419.238 254.545 419.238ZM254.545 413.934C256.449 413.934 257.968 413.299 259.101 412.03C260.257 410.761 260.835 409.083 260.835 406.998C260.835 404.89 260.257 403.213 259.101 401.966C257.968 400.697 256.449 400.062 254.545 400.062C252.619 400.062 251.077 400.685 249.921 401.932C248.788 403.179 248.221 404.867 248.221 406.998C248.221 409.106 248.788 410.795 249.921 412.064C251.077 413.311 252.619 413.934 254.545 413.934Z" fill="url(#paint0_linear_10_183)"/>
<path d="M123.566 330.986V338.795H112.964V371H103.217V338.795H92.6151V330.986H123.566ZM159.865 339.194V371H150.118V366.668C149.13 368.074 147.781 369.214 146.071 370.088C144.399 370.924 142.537 371.342 140.485 371.342C138.053 371.342 135.906 370.81 134.044 369.746C132.182 368.644 130.738 367.067 129.712 365.015C128.686 362.963 128.173 360.55 128.173 357.776V339.194H137.863V356.465C137.863 358.593 138.414 360.246 139.516 361.424C140.618 362.602 142.1 363.191 143.962 363.191C145.862 363.191 147.363 362.602 148.465 361.424C149.567 360.246 150.118 358.593 150.118 356.465V339.194H159.865ZM176.613 344.495C177.753 342.747 179.178 341.379 180.888 340.391C182.598 339.365 184.498 338.852 186.588 338.852V349.169H183.909C181.477 349.169 179.653 349.701 178.437 350.765C177.221 351.791 176.613 353.615 176.613 356.237V371H166.866V339.194H176.613V344.495ZM210.627 338.852C214.351 338.852 217.315 340.068 219.519 342.5C221.761 344.894 222.882 348.2 222.882 352.418V371H213.192V353.729C213.192 351.601 212.641 349.948 211.539 348.77C210.437 347.592 208.955 347.003 207.093 347.003C205.231 347.003 203.749 347.592 202.647 348.77C201.545 349.948 200.994 351.601 200.994 353.729V371H191.247V339.194H200.994V343.412C201.982 342.006 203.312 340.904 204.984 340.106C206.656 339.27 208.537 338.852 210.627 338.852ZM244.133 371.399C241.207 371.399 238.585 370.924 236.267 369.974C233.949 369.024 232.087 367.618 230.681 365.756C229.313 363.894 228.591 361.652 228.515 359.03H238.889C239.041 360.512 239.554 361.652 240.428 362.45C241.302 363.21 242.442 363.59 243.848 363.59C245.292 363.59 246.432 363.267 247.268 362.621C248.104 361.937 248.522 361.006 248.522 359.828C248.522 358.84 248.18 358.023 247.496 357.377C246.85 356.731 246.033 356.199 245.045 355.781C244.095 355.363 242.727 354.888 240.941 354.356C238.357 353.558 236.248 352.76 234.614 351.962C232.98 351.164 231.574 349.986 230.396 348.428C229.218 346.87 228.629 344.837 228.629 342.329C228.629 338.605 229.978 335.698 232.676 333.608C235.374 331.48 238.889 330.416 243.221 330.416C247.629 330.416 251.182 331.48 253.88 333.608C256.578 335.698 258.022 338.624 258.212 342.386H247.667C247.591 341.094 247.116 340.087 246.242 339.365C245.368 338.605 244.247 338.225 242.879 338.225C241.701 338.225 240.751 338.548 240.029 339.194C239.307 339.802 238.946 340.695 238.946 341.873C238.946 343.165 239.554 344.172 240.77 344.894C241.986 345.616 243.886 346.395 246.47 347.231C249.054 348.105 251.144 348.941 252.74 349.739C254.374 350.537 255.78 351.696 256.958 353.216C258.136 354.736 258.725 356.693 258.725 359.087C258.725 361.367 258.136 363.438 256.958 365.3C255.818 367.162 254.146 368.644 251.942 369.746C249.738 370.848 247.135 371.399 244.133 371.399ZM305.307 338.852C309.259 338.852 312.394 340.049 314.712 342.443C317.068 344.837 318.246 348.162 318.246 352.418V371H308.556V353.729C308.556 351.677 308.005 350.1 306.903 348.998C305.839 347.858 304.357 347.288 302.457 347.288C300.557 347.288 299.056 347.858 297.954 348.998C296.89 350.1 296.358 351.677 296.358 353.729V371H286.668V353.729C286.668 351.677 286.117 350.1 285.015 348.998C283.951 347.858 282.469 347.288 280.569 347.288C278.669 347.288 277.168 347.858 276.066 348.998C275.002 350.1 274.47 351.677 274.47 353.729V371H264.723V339.194H274.47V343.184C275.458 341.854 276.75 340.809 278.346 340.049C279.942 339.251 281.747 338.852 283.761 338.852C286.155 338.852 288.283 339.365 290.145 340.391C292.045 341.417 293.527 342.88 294.591 344.78C295.693 343.032 297.194 341.607 299.094 340.505C300.994 339.403 303.065 338.852 305.307 338.852ZM323.125 355.04C323.125 351.772 323.733 348.903 324.949 346.433C326.203 343.963 327.894 342.063 330.022 340.733C332.15 339.403 334.525 338.738 337.147 338.738C339.389 338.738 341.346 339.194 343.018 340.106C344.728 341.018 346.039 342.215 346.951 343.697V339.194H356.698V371H346.951V366.497C346.001 367.979 344.671 369.176 342.961 370.088C341.289 371 339.332 371.456 337.09 371.456C334.506 371.456 332.15 370.791 330.022 369.461C327.894 368.093 326.203 366.174 324.949 363.704C323.733 361.196 323.125 358.308 323.125 355.04ZM346.951 355.097C346.951 352.665 346.267 350.746 344.899 349.34C343.569 347.934 341.935 347.231 339.997 347.231C338.059 347.231 336.406 347.934 335.038 349.34C333.708 350.708 333.043 352.608 333.043 355.04C333.043 357.472 333.708 359.41 335.038 360.854C336.406 362.26 338.059 362.963 339.997 362.963C341.935 362.963 343.569 362.26 344.899 360.854C346.267 359.448 346.951 357.529 346.951 355.097ZM373.497 344.495C374.637 342.747 376.062 341.379 377.772 340.391C379.482 339.365 381.382 338.852 383.472 338.852V349.169H380.793C378.361 349.169 376.537 349.701 375.321 350.765C374.105 351.791 373.497 353.615 373.497 356.237V371H363.75V339.194H373.497V344.495ZM405.858 362.735V371H400.899C397.365 371 394.61 370.145 392.634 368.435C390.658 366.687 389.67 363.856 389.67 359.942V347.288H385.794V339.194H389.67V331.442H399.417V339.194H405.801V347.288H399.417V360.056C399.417 361.006 399.645 361.69 400.101 362.108C400.557 362.526 401.317 362.735 402.381 362.735H405.858Z" fill="url(#paint1_linear_10_183)"/>
<path fill-rule="evenodd" clip-rule="evenodd" d="M272.439 265.439L221.229 254.193C221.098 254.161 220.968 254.128 220.837 254.063C219.891 253.834 218.977 253.474 218.161 253.049C216.366 252.199 214.864 250.989 214.048 249.551C213.559 248.701 213.069 247.328 213.559 245.791C214.146 244.059 215.876 242.718 218.128 241.901C218.944 241.607 219.858 241.411 220.805 241.28C221.36 241.215 221.849 241.084 222.437 241.084C223.514 241.084 224.591 241.215 225.635 241.443L247.764 246.315L250.441 246.903L276.878 252.689C277.009 252.722 277.139 252.788 277.27 252.82C278.216 253.049 279.13 253.409 279.946 253.801C281.741 254.684 283.21 255.861 284.026 257.299C284.515 258.149 285.005 259.522 284.515 261.059C283.928 262.791 282.198 264.132 279.946 264.949C278.64 265.407 277.237 265.733 275.67 265.733C274.691 265.733 273.679 265.603 272.733 265.407C272.635 265.374 272.537 265.407 272.439 265.374V265.439ZM265.52 254.52C265.357 255.239 265.813 255.959 266.531 256.122L276.845 258.378C276.943 258.411 277.041 258.411 277.139 258.411C277.172 258.411 277.204 258.378 277.27 258.378C277.824 258.345 278.314 257.953 278.477 257.364C278.64 256.645 278.184 255.926 277.433 255.762L277.27 255.73L267.119 253.507C266.401 253.343 265.683 253.801 265.52 254.52Z" fill="url(#paint2_linear_10_183)"/>
<path fill-rule="evenodd" clip-rule="evenodd" d="M225.635 258.182L258.927 265.472L271.166 268.153L276.878 269.395C280.142 270.114 282.818 271.847 284.058 274.004C284.548 274.887 285.038 276.227 284.548 277.764C283.634 280.51 280.011 282.439 275.67 282.439C274.952 282.439 274.202 282.308 273.451 282.21C273.125 282.145 272.766 282.177 272.439 282.079L270.318 281.622L233.893 273.612L230.596 272.893L221.229 270.833C217.965 270.114 215.289 268.414 214.048 266.224C213.559 265.374 213.069 264.001 213.559 262.464C214.146 260.732 215.876 259.391 218.128 258.574C218.944 258.28 219.858 258.084 220.805 257.953C221.36 257.887 221.849 257.757 222.437 257.757C223.514 257.757 224.591 257.887 225.635 258.116V258.182ZM266.923 272.468L276.845 274.626C276.943 274.658 277.041 274.658 277.139 274.658C277.759 274.658 278.314 274.233 278.445 273.612C278.608 272.893 278.151 272.174 277.4 272.01L267.054 269.722C266.336 269.558 265.618 270.016 265.454 270.735C265.422 270.964 265.52 271.128 265.585 271.324C265.716 271.781 266.009 272.206 266.499 272.337L266.923 272.435V272.468Z" fill="url(#paint3_linear_10_183)"/>
<path fill-rule="evenodd" clip-rule="evenodd" d="M231.38 276.129L271.493 284.956L274.495 285.61L276.878 286.133C280.109 286.852 282.818 288.552 284.059 290.743C284.548 291.625 285.038 292.966 284.548 294.502C283.634 297.248 280.011 299.177 275.703 299.177C275.148 299.177 274.593 299.046 274.038 298.981C273.549 298.916 272.994 298.916 272.472 298.818L271.362 298.556L225.864 288.552L223.253 287.997L221.229 287.539C217.965 286.82 215.289 285.12 214.048 282.929C213.33 281.687 213.167 280.379 213.559 279.17C214.473 276.424 218.096 274.495 222.404 274.495C223.481 274.495 224.558 274.626 225.603 274.854L228.41 275.476L231.347 276.129H231.38ZM267.119 286.427C266.401 286.264 265.683 286.722 265.52 287.441C265.357 288.193 265.814 288.879 266.532 289.043L272.407 290.318L275.148 290.906L276.845 291.298C276.943 291.331 277.041 291.331 277.139 291.331C277.759 291.331 278.314 290.906 278.445 290.285C278.608 289.566 278.151 288.847 277.4 288.683L274.822 288.127L272.08 287.506L267.054 286.427H267.119Z" fill="url(#paint4_linear_10_183)"/>
<path fill-rule="evenodd" clip-rule="evenodd" d="M225.57 291.266L270.415 301.106C266.727 309.279 258.568 315 249.037 315C236.08 315 225.537 304.441 225.537 291.462C225.537 291.397 225.57 291.331 225.57 291.266V291.266ZM244.925 309.965C245.153 309.246 244.729 308.494 244.043 308.298C238.625 306.664 234.317 302.512 232.489 297.15C232.228 296.464 231.477 296.104 230.792 296.3C230.107 296.529 229.715 297.314 229.943 298C232.065 304.179 237.059 308.985 243.293 310.848C243.423 310.881 243.554 310.914 243.684 310.914C244.272 310.914 244.794 310.554 244.957 309.933L244.925 309.965Z" fill="url(#paint5_linear_10_183)"/>
<path d="M288.563 213.328C281.872 222.776 276.127 230.949 275.703 237.357V237.52V249.453L277.694 249.878L280.37 250.466L283.438 251.153V237.618C283.602 235.657 284.94 232.878 286.898 229.609C289.02 226.078 291.892 221.992 294.862 217.775C295.776 216.5 296.526 215.388 297.049 214.669C297.897 213.459 298.648 212.38 299.235 211.53C302.695 206.496 307.526 198.552 310.92 189.463C313.303 183.056 315 176.06 315 169.129C315 151.181 307.722 134.901 295.939 123.132C284.156 111.33 267.935 104.04 249.984 104.04C232.065 104.04 215.811 111.33 204.061 123.132C192.278 134.934 185 151.181 185 169.129C185 176.093 186.697 183.056 189.08 189.496C192.474 198.617 197.305 206.529 200.764 211.563C201.287 212.315 202.037 213.427 202.951 214.702C203.441 215.421 204.257 216.532 205.138 217.807C207.521 221.175 209.838 224.476 211.698 227.353C213.559 230.23 215.028 232.878 215.876 235.134L216.366 236.409L217.704 236.703L220.739 237.357L224.852 238.272L223.71 234.219C222.861 231.244 221.196 227.974 218.977 224.411C216.823 220.913 214.212 217.252 211.47 213.328C210.556 212.021 209.805 210.975 209.316 210.288C208.728 209.438 208.01 208.425 207.194 207.215C204.485 203.259 200.862 197.408 197.925 190.64C195.02 183.971 192.768 176.485 192.801 169.129C192.801 153.306 199.23 138.955 209.577 128.591C219.923 118.228 234.252 111.788 250.049 111.788C265.846 111.788 280.142 118.228 290.521 128.591C300.9 138.987 307.33 153.339 307.33 169.129C307.33 175.144 305.829 181.258 303.707 186.914C300.606 195.185 296.102 202.508 292.936 207.182C291.99 208.555 290.619 210.484 289.281 212.413L288.661 213.328H288.563Z" fill="url(#paint6_linear_10_183)"/>
<path fill-rule="evenodd" clip-rule="evenodd" d="M251.061 96.1938C253.737 96.1938 255.924 94.0034 255.924 91.3227V71.8711C255.924 69.1904 253.737 67 251.061 67C248.384 67 246.198 69.1904 246.198 71.8711V91.3227C246.198 94.0034 248.384 96.1938 251.061 96.1938ZM269.632 99.9533C267.152 98.9399 265.977 96.063 266.988 93.6111L274.397 75.6306C275.409 73.1461 278.281 71.9692 280.729 72.9826C283.21 73.996 284.385 76.8729 283.373 79.3248L275.964 97.3053C274.952 99.7899 272.08 100.967 269.632 99.9533ZM230.335 100.803C232.816 99.7899 233.991 96.913 232.979 94.4611L225.57 76.4806C224.558 73.996 221.686 72.8191 219.238 73.8326C216.758 74.846 215.583 77.7229 216.594 80.1748L224.003 98.1553C225.015 100.64 227.887 101.817 230.335 100.803V100.803Z" fill="url(#paint7_linear_10_183)"/>
<path fill-rule="evenodd" clip-rule="evenodd" d="M247.373 152.881C247.471 152.064 248.221 151.508 249.037 151.606C249.853 151.704 250.408 152.456 250.31 153.274C250.114 154.777 250.539 156.216 251.387 157.36C252.236 158.472 253.509 159.289 255.01 159.485C255.826 159.583 256.381 160.335 256.283 161.152C256.185 161.97 255.434 162.525 254.618 162.427C252.301 162.1 250.343 160.891 249.037 159.158C249.037 159.125 249.005 159.125 249.005 159.093C247.177 159.649 243.652 160.172 241.269 157.001C240.78 156.347 240.91 155.399 241.563 154.908C242.216 154.418 243.162 154.549 243.652 155.202C244.794 156.706 246.524 156.641 247.666 156.379C247.34 155.268 247.242 154.091 247.405 152.881H247.373ZM271.46 177.106C273.092 175.471 274.104 173.216 274.104 170.698C274.104 168.214 273.092 165.958 271.46 164.291C269.828 162.656 267.576 161.643 265.063 161.643C264.247 161.643 263.561 160.989 263.561 160.139C263.561 159.322 264.247 158.635 265.063 158.635C268.392 158.635 271.395 159.975 273.549 162.166C275.736 164.356 277.074 167.364 277.074 170.666C277.074 171.581 276.976 172.464 276.78 173.314C277.694 173.575 278.641 173.739 279.652 173.739C284.94 173.739 289.281 169.652 289.705 164.454C291.99 163.081 293.524 160.564 293.524 157.687C293.524 154.287 291.37 151.378 288.367 150.299C287.322 152.26 285.756 153.829 283.928 154.941C281.284 156.51 278.053 157.066 274.822 156.249L274.691 156.216L274.528 156.118C273.81 155.758 273.484 154.843 273.875 154.124C274.202 153.502 274.92 153.176 275.572 153.339C277.988 153.96 280.436 153.535 282.427 152.358C284.418 151.181 285.952 149.253 286.572 146.833C286.898 145.558 286.931 144.251 286.702 143.008C285.56 140.197 283.373 137.647 280.436 135.947C280.305 135.914 280.175 135.882 280.044 135.849C279.718 135.751 279.424 135.587 279.228 135.326C278.869 135.162 278.477 134.966 278.086 134.835C273.908 133.234 269.534 133.495 266.075 135.195C264.279 132.449 261.179 130.651 257.654 130.651C255.5 130.651 253.509 131.337 251.877 132.482C252.171 133.234 252.366 134.018 252.497 134.803C252.986 137.843 252.334 141.047 250.408 143.76C249.984 144.349 249.2 144.578 248.548 144.218C247.83 143.858 247.503 142.943 247.895 142.224L248.025 142.028C249.494 140.001 249.984 137.549 249.592 135.293C249.364 133.985 248.874 132.71 248.091 131.599C246.459 130.487 244.5 129.834 242.412 129.834C237.059 129.834 232.653 134.018 232.326 139.314C230.596 137.908 228.377 137.059 225.994 137.059C225.603 137.059 225.244 137.091 224.885 137.124C224.721 137.255 224.558 137.353 224.33 137.385C221.914 138.007 219.989 139.543 218.814 141.537C217.639 143.531 217.214 145.983 217.835 148.403C218.455 150.822 219.989 152.751 221.98 153.927C223.971 155.104 226.419 155.529 228.834 154.908L229.03 154.876H229.226C230.041 154.876 230.727 155.529 230.727 156.379C230.727 157.099 230.205 157.72 229.552 157.85C226.353 158.635 223.155 158.079 220.511 156.51C217.867 154.941 215.811 152.358 214.995 149.122L214.962 148.926C214.832 148.403 214.767 147.879 214.701 147.356C210.099 148.304 206.64 152.358 206.64 157.262C206.64 160.106 207.815 162.722 209.74 164.552C208.304 166.285 207.455 168.508 207.455 170.96C207.455 172.562 207.815 174.098 208.5 175.439C208.63 175.537 208.728 175.635 208.826 175.766C210.262 177.792 212.417 179.035 214.701 179.427C216.986 179.819 219.401 179.296 221.425 177.858C223.448 176.419 224.689 174.262 225.08 172.006C225.472 169.718 224.95 167.298 223.514 165.272L223.383 165.075C223.024 164.323 223.318 163.441 224.036 163.081C224.689 162.754 225.505 162.95 225.896 163.539C227.822 166.252 228.475 169.456 227.985 172.496C227.496 175.537 225.831 178.381 223.122 180.31C222.763 180.571 222.404 180.8 222.012 181.029C222.012 181.127 222.012 181.225 222.012 181.323C222.012 186.914 226.517 191.425 232.098 191.425C235.068 191.425 237.744 190.15 239.572 188.09L239.703 187.927C239.866 187.992 240.029 188.09 240.159 188.156C240.323 193.615 238.593 200.383 234.872 208.49C243.619 203.39 249.951 195.054 253.9 183.546C254.096 183.546 254.292 183.579 254.521 183.579C257.393 183.579 259.906 182.01 261.277 179.721C260.983 177.727 260.069 175.962 258.731 174.589C257.099 172.954 254.847 171.941 252.334 171.941C251.518 171.941 250.832 171.254 250.832 170.437C250.832 169.62 251.485 168.933 252.334 168.933C255.663 168.933 258.666 170.273 260.82 172.464C262.745 174.393 264.018 176.943 264.279 179.819C264.345 179.852 264.41 179.885 264.475 179.917C264.671 179.819 264.932 179.754 265.161 179.754C267.641 179.754 269.893 178.741 271.558 177.106H271.46ZM258.861 143.27C258.372 142.616 258.502 141.668 259.155 141.178C259.808 140.687 260.755 140.818 261.244 141.472C262.386 142.976 264.116 142.91 265.259 142.649C264.932 141.537 264.834 140.36 264.998 139.151C265.095 138.333 265.846 137.778 266.662 137.876C267.478 137.974 268.033 138.726 267.935 139.543C267.739 141.047 268.164 142.485 269.012 143.63C269.861 144.741 271.134 145.526 272.635 145.755C273.451 145.853 274.006 146.605 273.908 147.422C273.81 148.239 273.059 148.795 272.243 148.697C269.926 148.37 267.968 147.16 266.662 145.428C266.662 145.395 266.629 145.395 266.629 145.362C264.802 145.918 261.277 146.441 258.894 143.27H258.861ZM234.056 170.796C236.373 171.123 238.332 172.333 239.637 174.066C239.637 174.098 239.67 174.098 239.67 174.131C241.498 173.575 245.023 173.052 247.405 176.223C247.895 176.877 247.764 177.825 247.112 178.316C246.459 178.806 245.512 178.675 245.023 178.021C243.88 176.518 242.15 176.583 241.008 176.844C241.334 177.956 241.432 179.133 241.269 180.342C241.171 181.16 240.421 181.716 239.605 181.617C238.789 181.519 238.234 180.767 238.332 179.95C238.528 178.446 238.103 177.008 237.255 175.864C236.406 174.752 235.133 173.968 233.632 173.739C232.816 173.641 232.261 172.889 232.359 172.071C232.457 171.254 233.207 170.698 234.023 170.796H234.056Z" fill="url(#paint8_linear_10_183)"/>
<defs>
<linearGradient id="paint0_linear_10_183" x1="229.891" y1="387.922" x2="273.744" y2="419.832" gradientUnits="userSpaceOnUse">
<stop stop-color="#0F5FFF"/>
<stop offset="0.489218" stop-color="#0FAFFF"/>
<stop offset="1" stop-color="#0EEBFF"/>
</linearGradient>
<linearGradient id="paint1_linear_10_183" x1="81.5" y1="317.986" x2="120.677" y2="462.824" gradientUnits="userSpaceOnUse">
<stop stop-color="#0F5FFF"/>
<stop offset="0.489218" stop-color="#0FAFFF"/>
<stop offset="1" stop-color="#0EEBFF"/>
</linearGradient>
<linearGradient id="paint2_linear_10_183" x1="211.217" y1="243.946" x2="224.934" y2="283.774" gradientUnits="userSpaceOnUse">
<stop stop-color="#0F5FFF"/>
<stop offset="0.489218" stop-color="#0FAFFF"/>
<stop offset="1" stop-color="#0EEBFF"/>
</linearGradient>
<linearGradient id="paint3_linear_10_183" x1="211.216" y1="260.623" x2="224.96" y2="300.496" gradientUnits="userSpaceOnUse">
<stop stop-color="#0F5FFF"/>
<stop offset="0.489218" stop-color="#0FAFFF"/>
<stop offset="1" stop-color="#0EEBFF"/>
</linearGradient>
<linearGradient id="paint4_linear_10_183" x1="211.212" y1="277.361" x2="224.955" y2="317.234" gradientUnits="userSpaceOnUse">
<stop stop-color="#0F5FFF"/>
<stop offset="0.489218" stop-color="#0FAFFF"/>
<stop offset="1" stop-color="#0EEBFF"/>
</linearGradient>
<linearGradient id="paint5_linear_10_183" x1="224.192" y1="294.022" x2="241.891" y2="327.586" gradientUnits="userSpaceOnUse">
<stop stop-color="#0F5FFF"/>
<stop offset="0.489218" stop-color="#0FAFFF"/>
<stop offset="1" stop-color="#0EEBFF"/>
</linearGradient>
<linearGradient id="paint6_linear_10_183" x1="181.104" y1="121.123" x2="313.086" y2="238.099" gradientUnits="userSpaceOnUse">
<stop stop-color="#0F5FFF"/>
<stop offset="0.489218" stop-color="#0FAFFF"/>
<stop offset="1" stop-color="#0EEBFF"/>
</linearGradient>
<linearGradient id="paint7_linear_10_183" x1="214.208" y1="70.9675" x2="239.046" y2="120.186" gradientUnits="userSpaceOnUse">
<stop stop-color="#0F5FFF"/>
<stop offset="0.489218" stop-color="#0FAFFF"/>
<stop offset="1" stop-color="#0EEBFF"/>
</linearGradient>
<linearGradient id="paint8_linear_10_183" x1="204.036" y1="138.967" x2="274.745" y2="217.306" gradientUnits="userSpaceOnUse">
<stop stop-color="#0F5FFF"/>
<stop offset="0.489218" stop-color="#0FAFFF"/>
<stop offset="1" stop-color="#0EEBFF"/>
</linearGradient>
</defs>
</svg>
