<?xml version="1.0" encoding="UTF-8"?>
<svg xmlns="http://www.w3.org/2000/svg" xmlns:xlink="http://www.w3.org/1999/xlink" width="375pt" height="374.999991pt" viewBox="0 0 375 374.999991" version="1.2">
<defs>
<clipPath id="clip1">
  <path d="M 91.226562 39 L 283.765625 39 L 283.765625 307 L 91.226562 307 Z M 91.226562 39 "/>
</clipPath>
<clipPath id="clip2">
  <path d="M 158 178 L 283.765625 178 L 283.765625 336 L 158 336 Z M 158 178 "/>
</clipPath>
</defs>
<g id="surface1">
<path style=" stroke:none;fill-rule:nonzero;fill:rgb(100%,100%,100%);fill-opacity:1;" d="M 168.617188 278.023438 L 108.574219 215.199219 L 98.246094 178.585938 L 126.394531 136.117188 L 221.671875 50.378906 L 274.726562 103.59375 L 187.285156 189.886719 L 171.949219 222.035156 L 172.691406 247.71875 Z M 168.617188 278.023438 "/>
<path style=" stroke:none;fill-rule:nonzero;fill:rgb(9.01947%,84.709167%,88.62915%);fill-opacity:1;" d="M 216.949219 321.816406 C 216.949219 321.816406 174.171875 286.332031 174.171875 282.734375 C 174.171875 279.132812 168.617188 228.6875 168.617188 228.6875 L 190.28125 189.886719 L 274.726562 269.15625 Z M 216.949219 321.816406 "/>
<g clip-path="url(#clip1)" clip-rule="nonzero">
<path style=" stroke:none;fill-rule:nonzero;fill:rgb(13.729858%,12.159729%,12.548828%);fill-opacity:1;" d="M 189.949219 306.453125 C 192.210938 306.453125 194.46875 305.601562 196.199219 303.890625 C 199.675781 300.460938 199.726562 294.875 196.308594 291.386719 C 183.503906 278.316406 176.453125 261.046875 176.453125 242.753906 C 176.453125 224.414062 183.535156 207.128906 196.398438 194.039062 C 196.664062 193.800781 196.914062 193.546875 197.148438 193.277344 L 281.164062 109.476562 C 282.828125 107.808594 283.765625 105.554688 283.765625 103.203125 C 283.765625 100.851562 282.832031 98.59375 281.164062 96.933594 L 225.726562 41.617188 C 222.394531 38.289062 216.492188 38.289062 213.15625 41.617188 L 107.589844 146.953125 C 85.210938 169.28125 85.210938 205.613281 107.589844 227.945312 L 183.667969 303.855469 C 185.398438 305.585938 187.675781 306.453125 189.949219 306.453125 Z M 184.234375 181.09375 C 184.164062 181.15625 184.097656 181.226562 184.03125 181.289062 C 167.679688 197.757812 158.675781 219.585938 158.675781 242.753906 C 158.675781 246.761719 158.945312 250.726562 159.476562 254.632812 L 120.15625 215.402344 C 104.714844 199.988281 104.714844 174.910156 120.15625 159.496094 L 219.441406 60.429688 L 262.304688 103.203125 L 184.585938 180.734375 C 184.472656 180.847656 184.351562 180.96875 184.234375 181.09375 Z M 184.234375 181.09375 "/>
</g>
<g clip-path="url(#clip2)" clip-rule="nonzero">
<path style=" stroke:none;fill-rule:nonzero;fill:rgb(13.729858%,12.159729%,12.548828%);fill-opacity:1;" d="M 219.441406 335.878906 C 221.714844 335.878906 223.992188 335.011719 225.726562 333.28125 L 281.164062 277.984375 C 282.828125 276.324219 283.765625 274.066406 283.765625 271.710938 C 283.765625 269.359375 282.832031 267.105469 281.164062 265.441406 L 196.722656 181.1875 C 194.082031 178.539062 190.050781 177.839844 186.652344 179.433594 C 186.027344 179.726562 185.414062 180.113281 184.859375 180.554688 C 184.570312 180.78125 184.292969 181.027344 184.03125 181.289062 C 167.679688 197.757812 158.675781 219.585938 158.675781 242.753906 C 158.675781 265.707031 167.527344 287.382812 183.59375 303.785156 C 184.066406 304.273438 184.609375 304.816406 185.15625 305.335938 L 213.15625 333.28125 C 214.890625 335.011719 217.167969 335.878906 219.441406 335.878906 Z M 262.304688 271.710938 L 219.441406 314.464844 L 197.566406 292.640625 C 197.054688 292.148438 196.699219 291.792969 196.359375 291.4375 C 183.503906 278.316406 176.453125 261.046875 176.453125 242.753906 C 176.453125 227.253906 181.511719 212.507812 190.847656 200.40625 Z M 262.304688 271.710938 "/>
</g>
</g>
</svg>
