<?xml version="1.0" standalone="no"?>
<!DOCTYPE svg PUBLIC "-//W3C//DTD SVG 20010904//EN"
 "http://www.w3.org/TR/2001/REC-SVG-20010904/DTD/svg10.dtd">
<svg version="1.0" xmlns="http://www.w3.org/2000/svg"
 width="700.000000pt" height="700.000000pt" viewBox="0 0 700.000000 700.000000"
 preserveAspectRatio="xMidYMid meet">
<metadata>
Created by potrace 1.14, written by Peter Selinger 2001-2017
</metadata>
<g transform="translate(0.000000,700.000000) scale(0.100000,-0.100000)"
fill="#000000" stroke="none">
<path d="M3489 6058 c-43 -14 -51 -49 -47 -218 3 -146 4 -153 27 -171 30 -24
62 -24 92 0 23 18 24 25 27 178 3 147 2 160 -17 185 -25 31 -47 38 -82 26z"/>
<path d="M3874 5978 c-12 -5 -27 -22 -34 -37 -39 -84 -110 -266 -110 -281 0
-26 31 -58 62 -66 20 -4 33 0 50 18 27 27 130 271 130 307 1 25 -43 72 -65 70
-7 0 -22 -5 -33 -11z"/>
<path d="M3073 5969 c-12 -4 -30 -20 -39 -34 -17 -26 -16 -29 42 -172 59 -145
84 -183 126 -183 25 0 68 44 68 68 0 26 -106 281 -126 303 -20 22 -44 28 -71
18z"/>
<path d="M3380 5539 c-201 -26 -384 -119 -535 -274 -178 -181 -263 -405 -252
-659 9 -210 65 -344 282 -666 74 -110 137 -211 141 -225 6 -25 15 -28 107 -49
33 -8 33 -3 5 71 -26 69 -73 149 -179 299 -181 257 -263 478 -244 662 32 305
224 566 498 675 149 60 352 73 502 32 250 -69 463 -264 546 -501 54 -154 61
-284 24 -429 -33 -130 -104 -269 -227 -445 -56 -80 -121 -182 -145 -228 -43
-83 -43 -83 -43 -191 l0 -108 39 -7 c22 -3 46 -9 55 -12 14 -5 16 7 16 95 0
137 5 148 177 394 185 265 263 461 263 663 0 153 -31 277 -103 419 -108 209
-295 369 -518 443 -142 47 -267 59 -409 41z"/>
<path d="M3359 5180 c-45 -13 -78 -41 -95 -80 -15 -34 -20 -38 -37 -28 -11 6
-43 8 -70 5 -41 -3 -56 -11 -78 -35 -38 -43 -46 -91 -23 -138 27 -53 63 -76
121 -78 35 -1 48 -5 48 -16 0 -18 -42 -25 -92 -15 -46 8 -100 59 -115 106 -9
33 -15 38 -32 33 -12 -3 -32 -16 -44 -28 -54 -48 -66 -115 -33 -176 16 -31 17
-38 4 -69 -30 -72 2 -148 74 -171 99 -33 198 70 158 166 -19 46 -19 54 1 54
18 0 44 -58 44 -100 0 -41 -22 -90 -54 -119 -31 -29 -33 -64 -6 -108 38 -64
131 -83 198 -41 l35 22 -7 -55 c-6 -46 -34 -141 -62 -213 -6 -16 1 -13 38 12
71 49 135 128 185 230 29 60 51 92 61 92 27 0 82 38 82 56 0 38 -41 84 -91
101 -52 19 -66 43 -24 43 30 0 95 -31 114 -54 7 -9 19 -33 26 -53 7 -21 20
-39 28 -41 28 -6 87 27 107 60 49 81 4 177 -94 197 -33 7 -45 26 -22 34 26 10
89 -14 122 -47 34 -34 57 -96 48 -132 -5 -18 -1 -23 18 -26 65 -10 128 27 155
92 9 19 26 48 39 63 40 47 28 129 -23 162 -22 15 -25 14 -54 -20 -48 -54 -159
-76 -167 -32 -3 14 4 17 48 17 46 0 56 4 85 33 54 54 58 105 14 161 -52 66
-165 103 -238 78 -17 -6 -31 -7 -31 -2 0 4 -15 18 -34 29 -36 23 -100 28 -138
11 -21 -10 -23 -17 -20 -64 5 -72 -30 -142 -53 -106 -3 5 1 23 10 39 33 64 8
134 -53 150 -42 12 -38 12 -73 1z m389 -146 c4 -34 27 -63 60 -75 13 -5 22
-15 19 -22 -6 -16 -47 -11 -70 10 -10 10 -36 18 -58 18 -48 1 -96 39 -65 51 9
4 22 2 29 -5 6 -6 21 -11 33 -11 17 0 21 4 17 20 -7 26 4 53 20 48 6 -3 14
-18 15 -34z m-248 -188 c0 -28 33 -72 60 -81 25 -8 26 -35 1 -35 -10 0 -31 10
-47 22 -17 14 -38 21 -56 19 -33 -3 -78 22 -78 44 0 17 26 20 35 5 3 -5 17
-10 31 -10 20 0 24 5 24 30 0 20 5 30 15 30 9 0 15 -9 15 -24z m-159 -272 c6
-8 27 -14 46 -14 45 0 73 -16 73 -40 0 -24 -8 -25 -34 -5 -36 27 -56 19 -56
-21 0 -45 -22 -41 -31 7 -8 34 -40 69 -65 69 -14 0 -19 21 -8 33 8 8 61 -12
75 -29z"/>
<path d="M3056 3615 c-51 -18 -69 -37 -69 -74 0 -33 24 -66 63 -86 37 -19 762
-175 813 -175 45 0 99 28 120 61 15 25 -9 75 -47 99 -30 18 -778 191 -823 190
-10 -1 -36 -7 -57 -15z m764 -185 c82 -17 85 -19 72 -32 -8 -8 -29 -8 -81 2
-38 7 -75 16 -82 20 -16 11 -1 32 19 26 10 -2 42 -9 72 -16z"/>
<path d="M3075 3388 c-42 -9 -81 -39 -90 -69 -8 -24 21 -72 54 -92 34 -20 762
-180 822 -181 56 0 110 29 123 67 12 32 -13 72 -60 98 -16 10 -184 51 -374 93
-431 95 -427 94 -475 84z m737 -183 c76 -16 98 -28 78 -40 -12 -8 -123 12
-152 27 -19 9 -24 28 -9 28 5 0 43 -7 83 -15z"/>
<path d="M3040 3142 c-19 -9 -41 -29 -49 -43 -20 -35 2 -77 54 -105 43 -23
764 -184 823 -184 56 0 122 46 122 85 0 34 -35 72 -83 89 -56 22 -760 176
-800 176 -18 0 -48 -8 -67 -18z m791 -176 c54 -12 79 -36 37 -36 -27 0 -137
25 -144 33 -13 12 9 27 31 21 14 -3 48 -11 76 -18z"/>
<path d="M3156 2878 c15 -108 91 -211 193 -260 67 -32 179 -36 252 -9 67 25
135 82 166 138 l23 40 -303 67 c-166 36 -310 66 -320 66 -15 0 -16 -6 -11 -42z
m109 -68 c21 -47 67 -90 126 -121 52 -26 40 -48 -14 -26 -69 30 -170 147 -152
177 11 18 22 10 40 -30z"/>
<path d="M3321 2365 c-83 -26 -126 -87 -119 -172 6 -72 46 -114 137 -144 119
-39 153 -67 132 -108 -23 -42 -105 -33 -117 14 -6 24 -9 25 -80 25 -73 0 -74
0 -74 -25 0 -58 60 -126 128 -145 135 -37 268 19 289 122 20 97 -23 156 -148
203 -97 36 -119 51 -119 78 0 29 18 47 46 47 35 0 55 -11 65 -36 8 -22 14 -24
85 -24 74 0 76 1 70 23 -3 12 -6 28 -6 34 0 7 -16 31 -36 53 -57 63 -157 85
-253 55z"/>
<path d="M1292 2313 l3 -58 73 -3 72 -3 0 -225 0 -225 73 3 72 3 3 223 2 222
70 0 70 0 0 60 0 60 -220 0 -221 0 3 -57z"/>
<path d="M5450 2305 c0 -52 -1 -55 -25 -55 -25 0 -26 -2 -23 -57 3 -51 6 -58
24 -61 21 -3 22 -9 25 -121 5 -164 30 -195 164 -208 l65 -6 0 60 0 60 -39 7
c-46 7 -51 18 -51 129 l0 77 45 0 45 0 0 60 0 60 -40 0 -40 0 0 55 0 55 -75 0
-75 0 0 -55z"/>
<path d="M1797 2253 c-12 -11 -8 -298 5 -334 37 -109 155 -152 256 -94 l42 24
0 -25 c0 -23 2 -24 70 -24 l70 0 -2 228 -3 227 -65 0 -65 0 -5 -148 c-5 -141
-6 -150 -29 -168 -25 -21 -71 -25 -101 -9 -30 16 -40 66 -40 201 l0 129 -63 0
c-35 0 -67 -3 -70 -7z"/>
<path d="M2335 2248 c-3 -8 -4 -110 -3 -228 l3 -215 70 0 70 0 5 132 c6 154
11 163 89 171 l51 5 0 73 c0 68 -2 74 -20 74 -25 0 -96 -35 -107 -52 -5 -9 -9
-3 -13 17 -5 29 -6 30 -73 33 -49 2 -69 -1 -72 -10z"/>
<path d="M2675 2248 c-3 -8 -4 -110 -3 -228 l3 -215 70 0 70 0 5 148 c5 143 6
150 30 169 31 25 87 19 113 -13 14 -18 17 -43 17 -165 l0 -144 70 0 70 0 0
168 c0 154 -2 170 -23 207 -26 47 -92 85 -147 85 -20 0 -57 -11 -83 -23 l-46
-24 -3 21 c-3 19 -11 21 -71 24 -49 2 -69 -1 -72 -10z"/>
<path d="M3910 2249 c-13 -6 -33 -17 -42 -26 -17 -15 -18 -15 -18 5 0 21 -5
22 -75 22 l-75 0 2 -222 3 -223 70 0 70 0 5 148 c6 167 10 177 81 177 29 0 42
-6 58 -26 19 -24 21 -40 21 -165 l0 -139 69 0 70 0 3 144 c4 169 11 186 83
186 72 0 79 -17 83 -186 l3 -144 70 0 69 0 0 148 c0 81 -5 165 -11 187 -33
119 -195 164 -288 79 l-38 -34 -24 27 c-45 48 -127 66 -189 42z"/>
<path d="M4645 2247 c-150 -69 -167 -329 -27 -418 61 -39 142 -41 195 -5 l36
25 3 -22 c3 -20 9 -22 73 -22 l70 0 3 223 2 222 -75 0 c-69 0 -75 -2 -75 -21
0 -20 0 -20 -32 2 -39 28 -128 36 -173 16z m150 -121 c42 -18 55 -42 55 -100
0 -64 -33 -101 -90 -101 -57 0 -90 37 -90 101 0 57 13 82 53 99 40 18 32 17
72 1z"/>
<path d="M5310 2249 c-14 -6 -37 -22 -52 -36 l-28 -27 0 32 0 32 -70 0 -70 0
0 -225 0 -225 70 0 70 0 0 114 c0 62 5 127 11 144 11 33 49 52 100 52 l29 0 0
75 c0 82 -4 86 -60 64z"/>
<path d="M3507 1466 c-140 -52 -159 -241 -32 -313 155 -88 322 79 239 239 -33
64 -135 101 -207 74z m115 -94 c39 -33 30 -129 -13 -152 -60 -32 -129 10 -129
78 0 83 82 126 142 74z"/>
<path d="M3260 1300 l0 -170 45 0 45 0 0 170 0 170 -45 0 -45 0 0 -170z"/>
</g>
</svg>
