<?xml version="1.0" standalone="no"?>
<!DOCTYPE svg PUBLIC "-//W3C//DTD SVG 20010904//EN"
 "http://www.w3.org/TR/2001/REC-SVG-20010904/DTD/svg10.dtd">
<svg version="1.0" xmlns="http://www.w3.org/2000/svg"
 width="700.000000pt" height="700.000000pt" viewBox="0 0 700.000000 700.000000"
 preserveAspectRatio="xMidYMid meet">
<metadata>
Created by potrace 1.11, written by Peter Selinger 2001-2013
</metadata>
<g transform="translate(0.000000,700.000000) scale(0.100000,-0.100000)"
fill="#000000" stroke="none">
<path d="M4025 6251 c-54 -25 -2096 -2072 -2149 -2153 -111 -172 -164 -338
-173 -539 -11 -258 43 -459 180 -664 56 -85 2088 -2119 2143 -2145 49 -24 94
-25 137 -4 38 19 1092 1066 1113 1106 17 32 19 120 3 151 -6 12 -344 355 -751
763 l-740 741 732 724 c402 398 741 739 752 757 16 27 19 45 16 98 l-4 65
-545 545 c-310 312 -558 552 -576 560 -44 19 -90 17 -138 -5z m798 -1104 c37
-36 67 -70 67 -75 0 -5 -350 -358 -778 -783 -848 -843 -853 -850 -972 -1081
-132 -256 -190 -525 -177 -818 l6 -135 -402 405 c-436 438 -453 459 -504 615
-35 108 -43 270 -18 382 19 86 66 197 114 266 17 25 459 472 983 995 l953 951
330 -328 c182 -181 360 -358 398 -394z m-338 -2809 l410 -408 -395 -395 c-217
-217 -399 -395 -405 -395 -11 0 -371 361 -468 468 -307 340 -408 834 -261
1272 38 112 104 245 160 324 l36 48 256 -253 c141 -140 441 -437 667 -661z"/>
</g>
</svg>
