<svg width="189" height="23" viewBox="0 0 189 23" fill="none" xmlns="http://www.w3.org/2000/svg">
  <path
    d="M2.87109 0C3.43359 0 3.91406 0.203125 4.3125 0.609375C4.71875 1.01563 4.92188 1.50781 4.92188 2.08594C4.92188 2.65625 4.72266 3.14453 4.32422 3.55078C3.92578 3.94922 3.44922 4.14844 2.89453 4.14844C2.32422 4.14844 1.83594 3.94531 1.42969 3.53906C1.03125 3.125 0.832031 2.625 0.832031 2.03906C0.832031 1.47656 1.03125 0.996094 1.42969 0.597656C1.82812 0.199219 2.30859 0 2.87109 0ZM1.26562 5.25H4.47656V18H1.26562V5.25ZM13.3711 4.92188C14.5742 4.92188 15.7031 5.22266 16.7578 5.82422C17.8203 6.42578 18.6484 7.24219 19.2422 8.27344C19.8359 9.30469 20.1328 10.418 20.1328 11.6133C20.1328 12.8164 19.832 13.9414 19.2305 14.9883C18.6367 16.0352 17.8242 16.8555 16.793 17.4492C15.7617 18.0352 14.625 18.3281 13.3828 18.3281C11.5547 18.3281 9.99219 17.6797 8.69531 16.3828C7.40625 15.0781 6.76172 13.4961 6.76172 11.6367C6.76172 9.64453 7.49219 7.98438 8.95312 6.65625C10.2344 5.5 11.707 4.92188 13.3711 4.92188ZM13.418 7.93359C12.4258 7.93359 11.5977 8.28125 10.9336 8.97656C10.2773 9.66406 9.94922 10.5469 9.94922 11.625C9.94922 12.7344 10.2734 13.6328 10.9219 14.3203C11.5781 15.0078 12.4062 15.3516 13.4062 15.3516C14.4062 15.3516 15.2383 15.0039 15.9023 14.3086C16.5664 13.6133 16.8984 12.7188 16.8984 11.625C16.8984 10.5312 16.5703 9.64453 15.9141 8.96484C15.2656 8.27734 14.4336 7.93359 13.418 7.93359ZM24.5039 14.6602C25.0117 14.6602 25.4453 14.8398 25.8047 15.1992C26.1641 15.5508 26.3438 15.9805 26.3438 16.4883C26.3438 16.9961 26.1641 17.4297 25.8047 17.7891C25.4453 18.1484 25.0117 18.3281 24.5039 18.3281C23.9961 18.3281 23.5625 18.1484 23.2031 17.7891C22.8438 17.4297 22.6641 16.9961 22.6641 16.4883C22.6641 15.9805 22.8438 15.5508 23.2031 15.1992C23.5625 14.8398 23.9961 14.6602 24.5039 14.6602Z"
    fill="#38BDF8" />
  <path
    d="M29.5078 0.328125H32.707V10.5117L37.418 5.25H41.4258L35.9414 11.3672L42.0938 18H38.1211L32.707 12.1289V18H29.5078V0.328125ZM52.8281 5.25H56.0156V18H52.8281V16.6523C52.2031 17.2461 51.5742 17.6758 50.9414 17.9414C50.3164 18.1992 49.6367 18.3281 48.9023 18.3281C47.2539 18.3281 45.8281 17.6914 44.625 16.418C43.4219 15.1367 42.8203 13.5469 42.8203 11.6484C42.8203 9.67969 43.4023 8.06641 44.5664 6.80859C45.7305 5.55078 47.1445 4.92188 48.8086 4.92188C49.5742 4.92188 50.293 5.06641 50.9648 5.35547C51.6367 5.64453 52.2578 6.07812 52.8281 6.65625V5.25ZM49.4648 7.875C48.4727 7.875 47.6484 8.22656 46.9922 8.92969C46.3359 9.625 46.0078 10.5195 46.0078 11.6133C46.0078 12.7148 46.3398 13.6211 47.0039 14.332C47.6758 15.043 48.5 15.3984 49.4766 15.3984C50.4844 15.3984 51.3203 15.0508 51.9844 14.3555C52.6484 13.6523 52.9805 12.7344 52.9805 11.6016C52.9805 10.4922 52.6484 9.59375 51.9844 8.90625C51.3203 8.21875 50.4805 7.875 49.4648 7.875ZM58.5 5.25H61.2422V6.85547C61.5391 6.22266 61.9336 5.74219 62.4258 5.41406C62.918 5.08594 63.457 4.92188 64.043 4.92188C64.457 4.92188 64.8906 5.03125 65.3438 5.25L64.3477 8.00391C63.9727 7.81641 63.6641 7.72266 63.4219 7.72266C62.9297 7.72266 62.5117 8.02734 62.168 8.63672C61.832 9.24609 61.6641 10.4414 61.6641 12.2227L61.6758 12.8438V18H58.5V5.25ZM66.9258 5.25H70.1602V11.3906C70.1602 12.5859 70.2422 13.418 70.4062 13.8867C70.5703 14.3477 70.832 14.707 71.1914 14.9648C71.5586 15.2227 72.0078 15.3516 72.5391 15.3516C73.0703 15.3516 73.5195 15.2266 73.8867 14.9766C74.2617 14.7188 74.5391 14.3438 74.7188 13.8516C74.8516 13.4844 74.918 12.6992 74.918 11.4961V5.25H78.1289V10.6523C78.1289 12.8789 77.9531 14.4023 77.6016 15.2227C77.1719 16.2227 76.5391 16.9922 75.7031 17.5312C74.8672 18.0625 73.8047 18.3281 72.5156 18.3281C71.1172 18.3281 69.9844 18.0156 69.1172 17.3906C68.2578 16.7656 67.6523 15.8945 67.3008 14.7773C67.0508 14.0039 66.9258 12.5977 66.9258 10.5586V5.25ZM84.5273 5.25V6.65625C85.1055 6.07812 85.7305 5.64453 86.4023 5.35547C87.0742 5.06641 87.793 4.92188 88.5586 4.92188C90.2227 4.92188 91.6367 5.55078 92.8008 6.80859C93.9648 8.06641 94.5469 9.67969 94.5469 11.6484C94.5469 13.5469 93.9453 15.1367 92.7422 16.418C91.5391 17.6914 90.1133 18.3281 88.4648 18.3281C87.7305 18.3281 87.0469 18.1992 86.4141 17.9414C85.7812 17.6758 85.1523 17.2461 84.5273 16.6523V22.6641H81.3516V5.25H84.5273ZM87.8906 7.875C86.8828 7.875 86.0469 8.21875 85.3828 8.90625C84.7188 9.59375 84.3867 10.4922 84.3867 11.6016C84.3867 12.7344 84.7188 13.6523 85.3828 14.3555C86.0469 15.0508 86.8828 15.3984 87.8906 15.3984C88.8672 15.3984 89.6875 15.043 90.3516 14.332C91.0234 13.6211 91.3594 12.7148 91.3594 11.6133C91.3594 10.5195 91.0312 9.625 90.375 8.92969C89.7188 8.22656 88.8906 7.875 87.8906 7.875ZM100.371 5.25V6.65625C100.949 6.07812 101.574 5.64453 102.246 5.35547C102.918 5.06641 103.637 4.92188 104.402 4.92188C106.066 4.92188 107.48 5.55078 108.645 6.80859C109.809 8.06641 110.391 9.67969 110.391 11.6484C110.391 13.5469 109.789 15.1367 108.586 16.418C107.383 17.6914 105.957 18.3281 104.309 18.3281C103.574 18.3281 102.891 18.1992 102.258 17.9414C101.625 17.6758 100.996 17.2461 100.371 16.6523V22.6641H97.1953V5.25H100.371ZM103.734 7.875C102.727 7.875 101.891 8.21875 101.227 8.90625C100.562 9.59375 100.23 10.4922 100.23 11.6016C100.23 12.7344 100.562 13.6523 101.227 14.3555C101.891 15.0508 102.727 15.3984 103.734 15.3984C104.711 15.3984 105.531 15.043 106.195 14.332C106.867 13.6211 107.203 12.7148 107.203 11.6133C107.203 10.5195 106.875 9.625 106.219 8.92969C105.562 8.22656 104.734 7.875 103.734 7.875ZM113.027 5.25H116.262V11.3906C116.262 12.5859 116.344 13.418 116.508 13.8867C116.672 14.3477 116.934 14.707 117.293 14.9648C117.66 15.2227 118.109 15.3516 118.641 15.3516C119.172 15.3516 119.621 15.2266 119.988 14.9766C120.363 14.7188 120.641 14.3438 120.82 13.8516C120.953 13.4844 121.02 12.6992 121.02 11.4961V5.25H124.23V10.6523C124.23 12.8789 124.055 14.4023 123.703 15.2227C123.273 16.2227 122.641 16.9922 121.805 17.5312C120.969 18.0625 119.906 18.3281 118.617 18.3281C117.219 18.3281 116.086 18.0156 115.219 17.3906C114.359 16.7656 113.754 15.8945 113.402 14.7773C113.152 14.0039 113.027 12.5977 113.027 10.5586V5.25ZM135.258 7.03125L133.277 9.01172C132.473 8.21484 131.742 7.81641 131.086 7.81641C130.727 7.81641 130.445 7.89453 130.242 8.05078C130.039 8.19922 129.938 8.38672 129.938 8.61328C129.938 8.78516 130 8.94531 130.125 9.09375C130.258 9.23438 130.578 9.42969 131.086 9.67969L132.258 10.2656C133.492 10.875 134.34 11.4961 134.801 12.1289C135.262 12.7617 135.492 13.5039 135.492 14.3555C135.492 15.4883 135.074 16.4336 134.238 17.1914C133.41 17.9492 132.297 18.3281 130.898 18.3281C129.039 18.3281 127.555 17.6016 126.445 16.1484L128.414 14.0039C128.789 14.4414 129.227 14.7969 129.727 15.0703C130.234 15.3359 130.684 15.4688 131.074 15.4688C131.496 15.4688 131.836 15.3672 132.094 15.1641C132.352 14.9609 132.48 14.7266 132.48 14.4609C132.48 13.9688 132.016 13.4883 131.086 13.0195L130.008 12.4805C127.945 11.4414 126.914 10.1406 126.914 8.57812C126.914 7.57031 127.301 6.71094 128.074 6C128.855 5.28125 129.852 4.92188 131.062 4.92188C131.891 4.92188 132.668 5.10547 133.395 5.47266C134.129 5.83203 134.75 6.35156 135.258 7.03125ZM147.445 5.25H150.633V18H147.445V16.6523C146.82 17.2461 146.191 17.6758 145.559 17.9414C144.934 18.1992 144.254 18.3281 143.52 18.3281C141.871 18.3281 140.445 17.6914 139.242 16.418C138.039 15.1367 137.438 13.5469 137.438 11.6484C137.438 9.67969 138.02 8.06641 139.184 6.80859C140.348 5.55078 141.762 4.92188 143.426 4.92188C144.191 4.92188 144.91 5.06641 145.582 5.35547C146.254 5.64453 146.875 6.07812 147.445 6.65625V5.25ZM144.082 7.875C143.09 7.875 142.266 8.22656 141.609 8.92969C140.953 9.625 140.625 10.5195 140.625 11.6133C140.625 12.7148 140.957 13.6211 141.621 14.332C142.293 15.043 143.117 15.3984 144.094 15.3984C145.102 15.3984 145.938 15.0508 146.602 14.3555C147.266 13.6523 147.598 12.7344 147.598 11.6016C147.598 10.4922 147.266 9.59375 146.602 8.90625C145.938 8.21875 145.098 7.875 144.082 7.875ZM153.844 5.25H157.055V6.71484C157.602 6.11328 158.207 5.66406 158.871 5.36719C159.543 5.07031 160.273 4.92188 161.062 4.92188C161.859 4.92188 162.578 5.11719 163.219 5.50781C163.859 5.89844 164.375 6.46875 164.766 7.21875C165.273 6.46875 165.895 5.89844 166.629 5.50781C167.371 5.11719 168.18 4.92188 169.055 4.92188C169.961 4.92188 170.758 5.13281 171.445 5.55469C172.133 5.97656 172.625 6.52734 172.922 7.20703C173.227 7.88672 173.379 8.99219 173.379 10.5234V18H170.156V11.5312C170.156 10.0859 169.977 9.10938 169.617 8.60156C169.258 8.08594 168.719 7.82812 168 7.82812C167.453 7.82812 166.961 7.98438 166.523 8.29688C166.094 8.60938 165.773 9.04297 165.562 9.59766C165.352 10.1445 165.246 11.0273 165.246 12.2461V18H162.023V11.8242C162.023 10.6836 161.938 9.85938 161.766 9.35156C161.602 8.83594 161.352 8.45312 161.016 8.20312C160.68 7.95312 160.273 7.82812 159.797 7.82812C159.266 7.82812 158.781 7.98828 158.344 8.30859C157.914 8.62109 157.59 9.0625 157.371 9.63281C157.16 10.2031 157.055 11.1016 157.055 12.3281V18H153.844V5.25ZM175.02 5.25H178.289L181.605 13.2539L185.262 5.25H188.543L180.551 22.6641H177.246L179.871 17.0508L175.02 5.25Z"
    fill="currentColor" />
</svg>