<svg width="137" height="19" xmlns="http://www.w3.org/2000/svg">
  <path
    d="M4.629 13.992c0 .416.128.712.384.888.272.176.648.264 1.128.264a6 6 0 00.744-.048c.256-.048.48-.104.672-.168.144.176.264.376.36.6.112.208.168.464.168.768 0 .608-.232 1.104-.696 1.488-.448.384-1.248.576-2.4.576-1.408 0-2.496-.32-3.264-.96-.752-.64-1.128-1.68-1.128-3.12V4.008c.176-.048.424-.096.744-.144a5.635 5.635 0 011.056-.096c.704 0 1.248.128 1.632.384.4.24.6.76.6 1.56v1.536h3.144c.096.176.184.4.264.672.096.256.144.544.144.864 0 .56-.128.968-.384 1.224-.24.24-.568.36-.984.36H4.629v3.624zm5.53-7.488c.16-.048.407-.096.743-.144a7.985 7.985 0 011.08-.072c.352 0 .664.024.936.072.288.048.528.144.72.288.192.144.336.344.432.6.112.24.168.56.168.96v5.16c0 .656.16 1.128.48 1.416.32.272.784.408 1.392.408.368 0 .664-.032.888-.096.24-.064.424-.128.552-.192v-8.4c.16-.048.408-.096.744-.144a7.985 7.985 0 011.08-.072c.352 0 .664.024.936.072.288.048.528.144.72.288.192.144.336.344.432.6.112.24.168.56.168.96v7.296c0 .8-.336 1.4-1.008 1.8-.56.352-1.232.616-2.016.792a10.38 10.38 0 01-2.52.288 9.489 9.489 0 01-2.4-.288 5.341 5.341 0 01-1.872-.888 3.99 3.99 0 01-1.224-1.536c-.288-.64-.432-1.408-.432-2.304V6.504zm18.048 11.472a5.57 5.57 0 01-.768.144 7.465 7.465 0 01-1.056.072c-.352 0-.672-.024-.96-.072a1.606 1.606 0 01-.696-.288 1.493 1.493 0 01-.456-.576c-.096-.256-.144-.584-.144-.984v-7.2c0-.368.064-.68.192-.936.144-.272.344-.512.6-.72.256-.208.568-.392.936-.552a9.22 9.22 0 012.568-.744c.464-.08.928-.12 1.392-.12.768 0 1.376.152 1.824.456.448.288.672.768.672 1.44 0 .224-.032.448-.096.672-.064.208-.144.4-.24.576a11.399 11.399 0 00-2.064.192c-.336.064-.656.136-.96.216a3.698 3.698 0 00-.744.24v8.184zm12.945-7.368c0-.496-.144-.856-.432-1.08-.272-.24-.648-.36-1.128-.36-.32 0-.64.04-.96.12-.304.08-.568.2-.792.36v8.328a5.57 5.57 0 01-.768.144 7.465 7.465 0 01-1.056.072c-.352 0-.672-.024-.96-.072a1.606 1.606 0 01-.696-.288 1.493 1.493 0 01-.456-.576c-.096-.256-.144-.584-.144-.984v-7.2c0-.432.088-.784.264-1.056.192-.272.448-.52.768-.744.544-.384 1.224-.696 2.04-.936.832-.24 1.752-.36 2.76-.36 1.808 0 3.2.4 4.176 1.2.976.784 1.464 1.88 1.464 3.288v7.512a5.57 5.57 0 01-.768.144 7.465 7.465 0 01-1.056.072c-.352 0-.672-.024-.96-.072a1.606 1.606 0 01-.696-.288 1.493 1.493 0 01-.456-.576c-.096-.256-.144-.584-.144-.984v-5.664zm16.44 3.912c0 1.216-.456 2.168-1.368 2.856-.912.688-2.256 1.032-4.032 1.032-.672 0-1.296-.048-1.872-.144a5.853 5.853 0 01-1.488-.432c-.4-.208-.72-.464-.96-.768a1.77 1.77 0 01-.336-1.08c0-.384.08-.704.24-.96a2.37 2.37 0 01.576-.672c.464.256.992.488 1.584.696.608.192 1.304.288 2.088.288.496 0 .872-.072 1.128-.216.272-.144.408-.336.408-.576 0-.224-.096-.4-.288-.528-.192-.128-.512-.232-.96-.312l-.72-.144c-1.392-.272-2.432-.696-3.12-1.272-.672-.592-1.008-1.432-1.008-2.52 0-.592.128-1.128.384-1.608a3.37 3.37 0 011.08-1.2c.464-.32 1.016-.568 1.656-.744a8.322 8.322 0 012.16-.264 8.99 8.99 0 011.656.144c.528.08.984.208 1.368.384.384.176.688.408.912.696.224.272.336.6.336.984 0 .368-.072.688-.216.96a2.022 2.022 0 01-.504.648c-.128-.08-.32-.16-.576-.24a5.79 5.79 0 00-.84-.24 8.811 8.811 0 00-.936-.192 5.415 5.415 0 00-.84-.072c-.528 0-.936.064-1.224.192-.288.112-.432.296-.432.552 0 .176.08.32.24.432.16.112.464.216.912.312l.744.168c1.536.352 2.624.84 3.264 1.464.656.608.984 1.4.984 2.376zm7.564-8.544c.656 0 1.296.096 1.92.288.64.176 1.192.448 1.656.816a7.167 7.167 0 011.608-.792c.608-.208 1.336-.312 2.184-.312.608 0 1.2.08 1.776.24.592.16 1.112.416 1.56.768.464.336.832.792 1.104 1.368.272.56.408 1.248.408 2.064v7.56a5.57 5.57 0 01-.768.144 7.465 7.465 0 01-1.056.072c-.352 0-.672-.024-.96-.072a1.606 1.606 0 01-.696-.288 1.493 1.493 0 01-.456-.576c-.096-.256-.144-.584-.144-.984v-5.736c0-.48-.136-.824-.408-1.032-.272-.224-.64-.336-1.104-.336-.224 0-.464.056-.72.168-.256.096-.448.2-.576.312a.789.789 0 01.024.192v8.136c-.176.048-.44.096-.792.144a7.29 7.29 0 01-1.032.072c-.352 0-.672-.024-.96-.072a1.606 1.606 0 01-.696-.288 1.493 1.493 0 01-.456-.576c-.096-.256-.144-.584-.144-.984v-5.736c0-.48-.152-.824-.456-1.032-.288-.224-.64-.336-1.056-.336-.288 0-.536.048-.744.144-.208.08-.384.16-.528.24v8.424a5.57 5.57 0 01-.768.144 7.465 7.465 0 01-1.056.072c-.352 0-.672-.024-.96-.072a1.606 1.606 0 01-.696-.288 1.493 1.493 0 01-.456-.576c-.096-.256-.144-.584-.144-.984V9.024c0-.432.088-.776.264-1.032.192-.256.448-.496.768-.72.544-.384 1.216-.696 2.016-.936a8.969 8.969 0 012.544-.36zm19.697 9.432c.272 0 .568-.024.888-.072.336-.064.584-.144.744-.24v-1.92l-1.728.144c-.448.032-.816.128-1.104.288-.288.16-.432.4-.432.72 0 .32.12.584.36.792.256.192.68.288 1.272.288zm-.192-9.432c.864 0 1.648.088 2.352.264.72.176 1.328.448 1.824.816.512.352.904.808 1.176 1.368.272.544.408 1.192.408 1.944v5.376c0 .416-.12.76-.36 1.032-.224.256-.496.48-.816.672-1.04.624-2.504.936-4.392.936-.848 0-1.616-.08-2.304-.24-.672-.16-1.256-.4-1.752-.72A3.443 3.443 0 0179.67 16.2c-.256-.496-.384-1.072-.384-1.728 0-1.104.328-1.952.984-2.544.656-.592 1.672-.96 3.048-1.104l3.144-.336v-.168c0-.464-.208-.792-.624-.984-.4-.208-.984-.312-1.752-.312-.608 0-1.2.064-1.776.192a9.438 9.438 0 00-1.56.48c-.208-.144-.384-.36-.528-.648a2.164 2.164 0 01-.216-.936c0-.416.096-.744.288-.984.208-.256.52-.472.936-.648a7.2 7.2 0 011.632-.384c.64-.08 1.24-.12 1.8-.12zm12.335 12a5.57 5.57 0 01-.768.144 7.465 7.465 0 01-1.056.072c-.352 0-.672-.024-.96-.072a1.606 1.606 0 01-.696-.288 1.493 1.493 0 01-.456-.576c-.096-.256-.144-.584-.144-.984v-7.2c0-.368.064-.68.192-.936.144-.272.344-.512.6-.72.256-.208.568-.392.936-.552a9.22 9.22 0 012.568-.744c.464-.08.928-.12 1.392-.12.768 0 1.376.152 1.824.456.448.288.672.768.672 1.44 0 .224-.032.448-.096.672-.064.208-.144.4-.24.576a11.399 11.399 0 00-2.064.192c-.336.064-.656.136-.96.216a3.698 3.698 0 00-.744.24v8.184zm9.867-3.984c0 .416.128.712.384.888.272.176.648.264 1.128.264a6 6 0 00.744-.048c.256-.048.48-.104.672-.168.144.176.264.376.36.6.112.208.168.464.168.768 0 .608-.232 1.104-.696 1.488-.448.384-1.248.576-2.4.576-1.408 0-2.496-.32-3.264-.96-.752-.64-1.128-1.68-1.128-3.12V4.008c.176-.048.424-.096.744-.144a5.635 5.635 0 011.056-.096c.704 0 1.248.128 1.632.384.4.24.6.76.6 1.56v1.536h3.144c.096.176.184.4.264.672.096.256.144.544.144.864 0 .56-.128.968-.384 1.224-.24.24-.568.36-.984.36h-2.184v3.624z"
    fill="currentColor" />
  <path
    d="M111.673 16.056c0-.672.208-1.232.624-1.68.416-.448.984-.672 1.704-.672s1.288.224 1.704.672c.416.448.624 1.008.624 1.68 0 .672-.208 1.232-.624 1.68-.416.448-.984.672-1.704.672s-1.288-.224-1.704-.672c-.416-.448-.624-1.008-.624-1.68zm6.342-12.96c0-.608.2-1.12.6-1.536.416-.416.96-.624 1.632-.624.672 0 1.208.208 1.608.624.416.416.624.928.624 1.536s-.208 1.12-.624 1.536c-.4.416-.936.624-1.608.624s-1.216-.208-1.632-.624c-.4-.416-.6-.928-.6-1.536zm4.272 14.88c-.176.032-.44.072-.792.12-.336.064-.68.096-1.032.096s-.672-.024-.96-.072a1.606 1.606 0 01-.696-.288 1.493 1.493 0 01-.456-.576c-.096-.256-.144-.584-.144-.984V6.504c.176-.032.432-.072.768-.12a5.892 5.892 0 011.056-.096c.352 0 .664.024.936.072.288.048.528.144.72.288.192.144.336.344.432.6.112.24.168.56.168.96v9.768zm14.67-5.808c0 .992-.152 1.88-.456 2.664a5.32 5.32 0 01-1.296 1.944c-.544.528-1.2.928-1.968 1.2-.768.272-1.624.408-2.568.408s-1.8-.144-2.568-.432a5.872 5.872 0 01-1.992-1.224 5.723 5.723 0 01-1.272-1.968c-.304-.768-.456-1.632-.456-2.592 0-.944.152-1.8.456-2.568a5.475 5.475 0 011.272-1.944 5.687 5.687 0 011.992-1.248c.768-.288 1.624-.432 2.568-.432s1.8.152 2.568.456a5.446 5.446 0 011.968 1.248 5.32 5.32 0 011.296 1.944c.304.768.456 1.616.456 2.544zm-8.4 0c0 .976.184 1.728.552 2.256.384.512.912.768 1.584.768s1.184-.264 1.536-.792c.368-.528.552-1.272.552-2.232 0-.96-.184-1.696-.552-2.208-.368-.528-.888-.792-1.56-.792s-1.192.264-1.56.792c-.368.512-.552 1.248-.552 2.208z" />
</svg>