<svg width="107" height="23" viewBox="0 0 107 23" fill="none" xmlns="http://www.w3.org/2000/svg">
  <path
    d="M0.957031 0.761719H4.4375C6.32031 0.761719 7.67578 0.9375 8.50391 1.28906C9.33984 1.63281 9.99609 2.19531 10.4727 2.97656C10.957 3.75 11.1992 4.67969 11.1992 5.76562C11.1992 6.96875 10.8828 7.96875 10.25 8.76562C9.625 9.5625 8.77344 10.1172 7.69531 10.4297C7.0625 10.6094 5.91016 10.6992 4.23828 10.6992V18H0.957031V0.761719ZM4.23828 7.5H5.28125C6.10156 7.5 6.67188 7.44141 6.99219 7.32422C7.3125 7.20703 7.5625 7.01562 7.74219 6.75C7.92969 6.47656 8.02344 6.14844 8.02344 5.76562C8.02344 5.10156 7.76562 4.61719 7.25 4.3125C6.875 4.08594 6.17969 3.97266 5.16406 3.97266H4.23828V7.5ZM13.3203 5.25H16.0625V6.85547C16.3594 6.22266 16.7539 5.74219 17.2461 5.41406C17.7383 5.08594 18.2773 4.92188 18.8633 4.92188C19.2773 4.92188 19.7109 5.03125 20.1641 5.25L19.168 8.00391C18.793 7.81641 18.4844 7.72266 18.2422 7.72266C17.75 7.72266 17.332 8.02734 16.9883 8.63672C16.6523 9.24609 16.4844 10.4414 16.4844 12.2227L16.4961 12.8438V18H13.3203V5.25ZM27.7461 4.92188C28.9492 4.92188 30.0781 5.22266 31.1328 5.82422C32.1953 6.42578 33.0234 7.24219 33.6172 8.27344C34.2109 9.30469 34.5078 10.418 34.5078 11.6133C34.5078 12.8164 34.207 13.9414 33.6055 14.9883C33.0117 16.0352 32.1992 16.8555 31.168 17.4492C30.1367 18.0352 29 18.3281 27.7578 18.3281C25.9297 18.3281 24.3672 17.6797 23.0703 16.3828C21.7812 15.0781 21.1367 13.4961 21.1367 11.6367C21.1367 9.64453 21.8672 7.98438 23.3281 6.65625C24.6094 5.5 26.082 4.92188 27.7461 4.92188ZM27.793 7.93359C26.8008 7.93359 25.9727 8.28125 25.3086 8.97656C24.6523 9.66406 24.3242 10.5469 24.3242 11.625C24.3242 12.7344 24.6484 13.6328 25.2969 14.3203C25.9531 15.0078 26.7812 15.3516 27.7812 15.3516C28.7812 15.3516 29.6133 15.0039 30.2773 14.3086C30.9414 13.6133 31.2734 12.7188 31.2734 11.625C31.2734 10.5312 30.9453 9.64453 30.2891 8.96484C29.6406 8.27734 28.8086 7.93359 27.793 7.93359ZM38.6328 0C39.2031 0 39.6875 0.203125 40.0859 0.609375C40.4922 1.01563 40.6953 1.50781 40.6953 2.08594C40.6953 2.65625 40.4961 3.14453 40.0977 3.55078C39.6992 3.95703 39.2227 4.16016 38.668 4.16016C38.0977 4.16016 37.6094 3.95312 37.2031 3.53906C36.8047 3.125 36.6055 2.625 36.6055 2.03906C36.6055 1.47656 36.8008 0.996094 37.1914 0.597656C37.5898 0.199219 38.0703 0 38.6328 0ZM37.0391 5.25H40.2383V18.4219C40.2383 19.6328 40.1172 20.5352 39.875 21.1289C39.6406 21.7305 39.2656 22.1914 38.75 22.5117C38.2344 22.832 37.6133 22.9922 36.8867 22.9922C36.2461 22.9922 35.4492 22.832 34.4961 22.5117V19.9922C34.9961 20.2344 35.4375 20.3555 35.8203 20.3555C36.2266 20.3555 36.5312 20.2344 36.7344 19.9922C36.9375 19.75 37.0391 19.3047 37.0391 18.6562V5.25ZM56.1406 12.5508H45.8633C46.0117 13.457 46.4062 14.1797 47.0469 14.7188C47.6953 15.25 48.5195 15.5156 49.5195 15.5156C50.7148 15.5156 51.7422 15.0977 52.6016 14.2617L55.2969 15.5273C54.625 16.4805 53.8203 17.1875 52.8828 17.6484C51.9453 18.1016 50.832 18.3281 49.543 18.3281C47.543 18.3281 45.9141 17.6992 44.6562 16.4414C43.3984 15.1758 42.7695 13.5938 42.7695 11.6953C42.7695 9.75 43.3945 8.13672 44.6445 6.85547C45.9023 5.56641 47.4766 4.92188 49.3672 4.92188C51.375 4.92188 53.0078 5.56641 54.2656 6.85547C55.5234 8.13672 56.1523 9.83203 56.1523 11.9414L56.1406 12.5508ZM52.9297 10.0312C52.7188 9.32031 52.3008 8.74219 51.6758 8.29688C51.0586 7.85156 50.3398 7.62891 49.5195 7.62891C48.6289 7.62891 47.8477 7.87891 47.1758 8.37891C46.7539 8.69141 46.3633 9.24219 46.0039 10.0312H52.9297ZM71.2227 7.82812L68.5625 9.29297C68.0625 8.76953 67.5664 8.40625 67.0742 8.20312C66.5898 8 66.0195 7.89844 65.3633 7.89844C64.168 7.89844 63.1992 8.25781 62.457 8.97656C61.7227 9.6875 61.3555 10.6016 61.3555 11.7188C61.3555 12.8047 61.7109 13.6914 62.4219 14.3789C63.1328 15.0664 64.0664 15.4102 65.2227 15.4102C66.6523 15.4102 67.7656 14.9219 68.5625 13.9453L71.082 15.668C69.7148 17.4414 67.7852 18.3281 65.293 18.3281C63.0508 18.3281 61.293 17.6641 60.0195 16.3359C58.7539 15.0078 58.1211 13.4531 58.1211 11.6719C58.1211 10.4375 58.4297 9.30078 59.0469 8.26172C59.6641 7.22266 60.5234 6.40625 61.625 5.8125C62.7344 5.21875 63.9727 4.92188 65.3398 4.92188C66.6055 4.92188 67.7422 5.17578 68.75 5.68359C69.7578 6.18359 70.582 6.89844 71.2227 7.82812ZM74.5039 0.550781H77.6914V5.25H79.5898V8.00391H77.6914V18H74.5039V8.00391H72.8633V5.25H74.5039V0.550781Z"
    fill="currentColor" />
  <path
    d="M83.0586 14.6602C83.5664 14.6602 84 14.8398 84.3594 15.1992C84.7188 15.5508 84.8984 15.9805 84.8984 16.4883C84.8984 16.9961 84.7188 17.4297 84.3594 17.7891C84 18.1484 83.5664 18.3281 83.0586 18.3281C82.5508 18.3281 82.1172 18.1484 81.7578 17.7891C81.3984 17.4297 81.2188 16.9961 81.2188 16.4883C81.2188 15.9805 81.3984 15.5508 81.7578 15.1992C82.1172 14.8398 82.5508 14.6602 83.0586 14.6602ZM89.293 0C89.8555 0 90.3359 0.203125 90.7344 0.609375C91.1406 1.01563 91.3438 1.50781 91.3438 2.08594C91.3438 2.65625 91.1445 3.14453 90.7461 3.55078C90.3477 3.94922 89.8711 4.14844 89.3164 4.14844C88.7461 4.14844 88.2578 3.94531 87.8516 3.53906C87.4531 3.125 87.2539 2.625 87.2539 2.03906C87.2539 1.47656 87.4531 0.996094 87.8516 0.597656C88.25 0.199219 88.7305 0 89.293 0ZM87.6875 5.25H90.8984V18H87.6875V5.25ZM99.793 4.92188C100.996 4.92188 102.125 5.22266 103.18 5.82422C104.242 6.42578 105.07 7.24219 105.664 8.27344C106.258 9.30469 106.555 10.418 106.555 11.6133C106.555 12.8164 106.254 13.9414 105.652 14.9883C105.059 16.0352 104.246 16.8555 103.215 17.4492C102.184 18.0352 101.047 18.3281 99.8047 18.3281C97.9766 18.3281 96.4141 17.6797 95.1172 16.3828C93.8281 15.0781 93.1836 13.4961 93.1836 11.6367C93.1836 9.64453 93.9141 7.98438 95.375 6.65625C96.6562 5.5 98.1289 4.92188 99.793 4.92188ZM99.8398 7.93359C98.8477 7.93359 98.0195 8.28125 97.3555 8.97656C96.6992 9.66406 96.3711 10.5469 96.3711 11.625C96.3711 12.7344 96.6953 13.6328 97.3438 14.3203C98 15.0078 98.8281 15.3516 99.8281 15.3516C100.828 15.3516 101.66 15.0039 102.324 14.3086C102.988 13.6133 103.32 12.7188 103.32 11.625C103.32 10.5312 102.992 9.64453 102.336 8.96484C101.688 8.27734 100.855 7.93359 99.8398 7.93359Z"
    fill="#38BDF8" />
</svg>